<?xml version="1.0" encoding="utf-8"?>
<!-- Generator: Adobe Illustrator 25.4.1, SVG Export Plug-In . SVG Version: 6.00 Build 0)  -->
<svg version="1.1" id="Layer_1" xmlns="http://www.w3.org/2000/svg" xmlns:xlink="http://www.w3.org/1999/xlink" x="0px" y="0px"
	 viewBox="0 0 172 175" style="enable-background:new 0 0 172 175;" xml:space="preserve">
<style type="text/css">
	.st0{fill:#FF0066;}
	.st1{fill:#FFFFFF;}
</style>
<circle class="st0" cx="86.2" cy="88.7" r="76.4"/>
<path class="st1" d="M71.2,28.9h55.7v3.3h-9.4v74c0,15.4-3.5,26.7-10.5,33.7c-7,7-17.4,10.6-31.4,10.6c-9.3,0-16.6-1.8-22.1-5.3
	c-5.2-3.2-8.4-8.9-8.2-15c-0.2-4.3,1.2-8.4,4.1-11.6c3-2.9,7.1-4.4,11.2-4.2c4.7,0,8.3,1.2,10.6,3.6c2.4,2.3,3.6,5.5,3.6,8.8
	c0,3.5-0.7,6.9-1.9,10.2h-6.7c-1,1.5-1.5,3.1-1.6,4.9c0,1.6,0.9,3.1,2.3,4c1.8,1.2,3.9,1.8,6.1,1.7c4.6,0,7.5-1.8,8.8-5.4
	c1.3-3.6,2-11.4,2-23.4V32.2H71.2V28.9z"/>
</svg>
