<?xml version="1.0" standalone="no"?>
<!DOCTYPE svg PUBLIC "-//W3C//DTD SVG 20010904//EN"
 "http://www.w3.org/TR/2001/REC-SVG-20010904/DTD/svg10.dtd">
<svg version="1.0" xmlns="http://www.w3.org/2000/svg"
 width="700.000000pt" height="700.000000pt" viewBox="0 0 700.000000 700.000000"
 preserveAspectRatio="xMidYMid meet">
<metadata>
Created by potrace 1.14, written by Peter Selinger 2001-2017
</metadata>
<g transform="translate(0.000000,700.000000) scale(0.100000,-0.100000)"
fill="#000000" stroke="none">
<path d="M3296 6503 c-2 -2 -34 -6 -72 -9 -38 -2 -80 -7 -94 -9 -14 -2 -43 -6
-65 -10 -23 -3 -52 -8 -65 -10 -14 -3 -41 -8 -60 -11 -19 -3 -89 -19 -155 -35
-157 -39 -150 -37 -152 -39 -2 -2 -6 -3 -10 -4 -27 -6 -130 -41 -138 -46 -5
-4 -25 -11 -43 -15 -18 -3 -45 -13 -60 -20 -15 -7 -45 -20 -67 -30 -83 -35
-310 -149 -313 -157 -2 -4 -8 -8 -13 -8 -9 0 -139 -78 -149 -90 -3 -3 -17 -11
-32 -17 -16 -7 -28 -17 -28 -23 0 -5 -7 -10 -15 -10 -8 0 -15 -4 -15 -10 0 -5
-5 -10 -10 -10 -9 0 -138 -97 -225 -170 -69 -57 -306 -300 -361 -370 -32 -41
-61 -77 -64 -80 -41 -39 -235 -340 -284 -440 -9 -19 -21 -42 -26 -50 -5 -8
-17 -33 -27 -55 -9 -22 -21 -43 -26 -46 -5 -3 -8 -10 -8 -15 1 -5 -12 -40 -28
-79 -38 -91 -72 -179 -75 -196 -2 -8 -8 -27 -15 -44 -10 -25 -51 -172 -67
-240 -15 -63 -25 -113 -28 -135 -2 -14 -7 -41 -11 -60 -3 -19 -8 -51 -11 -70
-2 -19 -6 -51 -9 -70 -13 -93 -17 -171 -18 -355 -2 -241 9 -365 49 -580 23
-120 26 -132 50 -220 9 -33 17 -67 19 -75 5 -24 73 -214 106 -298 48 -121 203
-424 220 -430 5 -2 9 -8 9 -14 0 -5 28 -50 63 -100 34 -49 67 -97 72 -106 6
-9 12 -19 15 -22 4 -4 69 -85 92 -115 51 -64 237 -258 324 -335 98 -88 217
-179 344 -264 25 -16 48 -35 52 -40 4 -6 8 -7 8 -3 0 4 6 3 13 -3 22 -19 146
-90 156 -90 6 0 11 -4 11 -10 0 -5 4 -10 9 -10 6 0 56 -22 113 -49 57 -27 123
-58 148 -69 101 -44 384 -138 402 -134 4 1 19 -3 34 -8 30 -12 194 -46 261
-55 13 -2 42 -7 65 -11 47 -8 57 -9 203 -20 212 -15 538 -1 695 31 13 2 42 7
65 10 22 4 69 13 105 21 36 9 73 17 84 19 10 3 44 12 75 21 31 9 56 15 56 14
0 -3 217 74 285 102 128 52 294 135 402 200 153 91 349 228 356 249 2 5 8 9
12 9 8 0 31 20 128 108 14 12 29 22 33 22 5 0 9 6 9 13 0 8 10 19 23 27 19 11
152 151 232 245 120 140 290 399 375 570 14 28 29 53 33 56 5 3 8 9 7 13 -1 4
7 26 18 49 74 163 142 357 178 502 26 107 44 189 49 225 3 25 8 52 10 60 24
95 53 590 37 624 -3 4 -6 38 -8 75 -5 117 -21 229 -60 436 -21 109 -123 436
-158 503 -9 17 -13 32 -10 32 4 0 -1 9 -11 20 -10 11 -15 20 -12 20 9 0 -97
211 -160 319 -94 159 -275 409 -336 464 -11 9 -17 17 -14 17 9 0 -232 240
-282 280 -23 19 -53 44 -64 54 -35 30 -239 180 -277 204 -156 95 -433 242
-456 242 -3 0 -29 11 -57 24 -51 23 -190 71 -195 67 -1 -1 -16 6 -32 14 -16 8
-31 15 -32 14 -2 -1 -30 6 -63 16 -33 10 -69 19 -80 20 -11 2 -47 10 -80 18
-86 22 -233 46 -385 63 -53 6 -489 12 -494 7z"/>
</g>
</svg>
